<svg width="17" height="16" xmlns="http://www.w3.org/2000/svg">
 <g>
  <title>background</title>
  <rect x="-1" y="-1" width="19" height="18" id="canvas_background" fill="none"/>
 </g>

 <g>
  <title>Layer 1</title>
  <path stroke="null" d="m0.29289,7.29289c-0.39052,0.39053 -0.39052,1.02369 0,1.41422l6.36396,6.36399c0.39053,0.3905 1.02369,0.3905 1.41422,0c0.39052,-0.3906 0.39052,-1.0237 0,-1.4142l-5.65686,-5.6569l5.65686,-5.65685c0.39052,-0.39053 0.39052,-1.02369 0,-1.41422c-0.39053,-0.39052 -1.02369,-0.39052 -1.41421,0l-6.36397,6.36396zm16.70711,-0.29289l-16,0c0.66667,0.66667 1.33333,1.33333 2,2l14,0l0,-2z" fill="#3075c6" id="svg_1"/>
 </g>
</svg>