<svg width="315" height="315" xmlns="http://www.w3.org/2000/svg">

 <g>
  <title>background</title>
  <rect fill="none" id="canvas_background" height="402" width="582" y="-1" x="-1"/>
 </g>
 <g>
  <title>Layer 1</title>
  <g id="svg_1">
   <g id="svg_2">
    <g id="svg_3">
     <path fill="#ffffff" id="svg_4" d="m157.5,0c-64.181,0 -116.397,52.215 -116.397,116.397c0,62.138 106.113,190.466 110.63,195.898c1.425,1.713 3.538,2.705 5.767,2.705c2.228,0 4.342,-0.991 5.767,-2.705c4.518,-5.433 110.63,-133.76 110.63,-195.898c0,-64.182 -52.215,-116.397 -116.397,-116.397zm0,295.598c-9.409,-11.749 -28.958,-36.781 -48.303,-65.397c-34.734,-51.379 -53.094,-90.732 -53.094,-113.804c0,-55.911 45.487,-101.397 101.397,-101.397c55.91,0 101.397,45.486 101.397,101.397c0,23.071 -18.359,62.424 -53.094,113.804c-19.346,28.616 -38.894,53.648 -48.303,65.397z"/>
     <path fill="#ffffff" id="svg_5" d="m195.657,213.956c-3.432,-2.319 -8.095,-1.415 -10.413,2.017c-10.121,14.982 -21.459,30.684 -33.699,46.67c-2.518,3.289 -1.894,7.996 1.395,10.514c1.36,1.042 2.963,1.546 4.554,1.546c2.254,0 4.484,-1.013 5.96,-2.941c12.42,-16.22 23.933,-32.165 34.219,-47.392c2.319,-3.432 1.417,-8.095 -2.016,-10.414z"/>
     <path fill="#ffffff" id="svg_6" d="m157.5,57.5c-33.911,0 -61.5,27.589 -61.5,61.5s27.589,61.5 61.5,61.5s61.5,-27.589 61.5,-61.5s-27.589,-61.5 -61.5,-61.5zm0,108c-25.64,0 -46.5,-20.86 -46.5,-46.5s20.86,-46.5 46.5,-46.5c25.641,0 46.5,20.86 46.5,46.5s-20.859,46.5 -46.5,46.5z"/>
    </g>
   </g>
  </g>
  <g id="svg_7"/>
  <g id="svg_8"/>
  <g id="svg_9"/>
  <g id="svg_10"/>
  <g id="svg_11"/>
  <g id="svg_12"/>
  <g id="svg_13"/>
  <g id="svg_14"/>
  <g id="svg_15"/>
  <g id="svg_16"/>
  <g id="svg_17"/>
  <g id="svg_18"/>
  <g id="svg_19"/>
  <g id="svg_20"/>
  <g id="svg_21"/>
 </g>
</svg>