<svg width="512" height="512" xmlns="http://www.w3.org/2000/svg">
 <title>ionicons-v5-j</title>

 <g>
  <title>background</title>
  <rect fill="none" id="canvas_background" height="402" width="582" y="-1" x="-1"/>
 </g>
 <g>
  <title>Layer 1</title>
  <path fill="#ffffff" id="svg_1" d="m336,256c-20.56,0 -40.44,-9.18 -56,-25.84c-15.13,-16.25 -24.37,-37.92 -26,-61c-1.74,-24.62 5.77,-47.26 21.14,-63.76s36.86,-25.4 60.86,-25.4c23.83,0 45.38,9.06 60.7,25.52c15.47,16.62 23,39.22 21.26,63.63l0,0c-1.67,23.11 -10.9,44.77 -26,61c-15.52,16.67 -35.39,25.85 -55.96,25.85zm66,-88l0,0z"/>
  <path fill="#ffffff" id="svg_2" d="m467.83,432l-263.65,0a27.71,27.71 0 0 1 -22,-10.67a30.22,30.22 0 0 1 -5.26,-25.79c8.42,-33.81 29.28,-61.85 60.32,-81.08c27.55,-17.06 62.62,-26.46 98.76,-26.46c36.85,0 71,9 98.71,26.05c31.11,19.13 52,47.33 60.38,81.55a30.27,30.27 0 0 1 -5.32,25.78a27.68,27.68 0 0 1 -21.94,10.62z"/>
  <path fill="#ffffff" id="svg_3" d="m147,247c-35.19,0 -66.13,-32.72 -69,-72.93c-1.42,-20.6 5,-39.65 18,-53.62c12.86,-13.83 31,-21.45 51,-21.45s38,7.66 50.93,21.57c13.1,14.08 19.5,33.09 18,53.52c-2.87,40.2 -33.8,72.91 -68.93,72.91z"/>
  <path fill="#ffffff" id="svg_4" d="m212.66,291.45c-17.59,-8.6 -40.42,-12.9 -65.65,-12.9c-29.46,0 -58.07,7.68 -80.57,21.62c-25.51,15.83 -42.67,38.88 -49.6,66.71a27.39,27.39 0 0 0 4.79,23.36a25.32,25.32 0 0 0 20.09,9.76l111,0a8,8 0 0 0 7.87,-6.57c0.11,-0.63 0.25,-1.26 0.41,-1.88c8.48,-34.06 28.35,-62.84 57.71,-83.82a8,8 0 0 0 -0.63,-13.39c-1.57,-0.92 -3.37,-1.89 -5.42,-2.89z"/>
 </g>
</svg>