<svg width="489.2" height="489.2" xmlns="http://www.w3.org/2000/svg">

 <g>
  <title>background</title>
  <rect fill="none" id="canvas_background" height="402" width="582" y="-1" x="-1"/>
 </g>
 <g>
  <title>Layer 1</title>
  <g id="svg_1">
   <g id="svg_2">
    <path fill="#ffffff" id="svg_3" d="m177.8,238.1c0,4.5 -3.6,8.1 -8.1,8.1l-30.4,0c-4.5,0 -8.1,-3.6 -8.1,-8.1l0,-30.4c0,-4.5 3.6,-8.1 8.1,-8.1l30.4,0c4.5,0 8.1,3.6 8.1,8.1l0,30.4zm63.5,-30.3c0,-4.5 -3.6,-8.1 -8.1,-8.1l-30.4,0c-4.5,0 -8.1,3.6 -8.1,8.1l0,30.4c0,4.5 3.6,8.1 8.1,8.1l30.4,0c4.5,0 8.1,-3.6 8.1,-8.1l0,-30.4zm63.5,0c0,-4.5 -3.6,-8.1 -8.1,-8.1l-30.4,0c-4.5,0 -8.1,3.6 -8.1,8.1l0,30.4c0,4.5 3.6,8.1 8.1,8.1l30.4,0c4.5,0 8.1,-3.6 8.1,-8.1l0,-30.4zm-127,61.8c0,-4.5 -3.6,-8.1 -8.1,-8.1l-30.4,0c-4.5,0 -8.1,3.6 -8.1,8.1l0,30.4c0,4.5 3.6,8.1 8.1,8.1l30.4,0c4.5,0 8.1,-3.6 8.1,-8.1l0,-30.4zm63.5,0c0,-4.5 -3.6,-8.1 -8.1,-8.1l-30.4,0c-4.5,0 -8.1,3.6 -8.1,8.1l0,30.4c0,4.5 3.6,8.1 8.1,8.1l30.4,0c4.5,0 8.1,-3.6 8.1,-8.1l0,-30.4zm55.4,-8.1l-30.4,0c-4.5,0 -8.1,3.6 -8.1,8.1l0,30.4c0,4.5 3.6,8.1 8.1,8.1l30.4,0c4.5,0 8.1,-3.6 8.1,-8.1l0,-30.4c0,-4.5 -3.6,-8.1 -8.1,-8.1zm-190.6,61.8l-30.3,0c-4.5,0 -8.1,3.6 -8.1,8.1l0,30.4c0,4.5 3.6,8.1 8.1,8.1l30.4,0c4.5,0 8.1,-3.6 8.1,-8.1l0,-30.4c0,-4.5 -3.7,-8.1 -8.2,-8.1zm8.2,-53.7c0,-4.5 -3.6,-8.1 -8.1,-8.1l-30.4,0c-4.5,0 -8.1,3.6 -8.1,8.1l0,30.4c0,4.5 3.6,8.1 8.1,8.1l30.4,0c4.5,0 8.1,-3.6 8.1,-8.1l0,-30.4zm118.9,53.7l-30.4,0c-4.5,0 -8.1,3.6 -8.1,8.1l0,30.4c0,4.5 3.6,8.1 8.1,8.1l30.4,0c4.5,0 8.1,-3.6 8.1,-8.1l0,-30.4c0,-4.5 -3.6,-8.1 -8.1,-8.1zm-63.5,0l-30.4,0c-4.5,0 -8.1,3.6 -8.1,8.1l0,30.4c0,4.5 3.6,8.1 8.1,8.1l30.4,0c4.5,0 8.1,-3.6 8.1,-8.1l0,-30.4c0,-4.5 -3.6,-8.1 -8.1,-8.1zm190.5,-77c4.5,0 8.1,-3.6 8.1,-8.1l0,-30.4c0,-4.5 -3.6,-8.1 -8.1,-8.1l-30.4,0c-4.5,0 -8.1,3.6 -8.1,8.1l0,30.4c0,4.5 3.6,8.1 8.1,8.1l30.4,0zm-312.5,189.6l230.7,0c-3.7,-11.6 -5.8,-24 -5.9,-36.8l-224.8,0c-6,0 -10.8,-4.9 -10.8,-10.8l0,-217.3l361.7,0l0,101.1c12.8,0.1 25.2,2 36.8,5.7l0,-182.9c0,-26.3 -21.4,-47.7 -47.7,-47.7l-53.4,0l0,-29.4c0,-9.6 -7.8,-17.4 -17.4,-17.4l-27.1,0c-9.6,0 -17.4,7.8 -17.4,17.4l0,29.5l-109.4,0l0,-29.5c0,-9.6 -7.8,-17.4 -17.4,-17.4l-27.1,0c-9.6,0 -17.4,7.8 -17.4,17.4l0,29.5l-53.4,0c-26.3,0 -47.7,21.4 -47.7,47.7l0,293.3c0,26.2 21.4,47.6 47.7,47.6zm441.5,-38.2c0,50.3 -40.8,91.1 -91.1,91.1s-91.1,-40.8 -91.1,-91.1s40.8,-91.1 91.1,-91.1s91.1,40.8 91.1,91.1zm-45.1,-23.6c0,-2.9 -1.1,-5.7 -3.2,-7.7c-4.3,-4.3 -11.2,-4.3 -15.5,0l-39.6,39.6l-15.2,-15.2c-4.3,-4.3 -11.2,-4.3 -15.5,0c-2.1,2.1 -3.2,4.8 -3.2,7.7c0,2.9 1.1,5.7 3.2,7.7l22.9,22.9c4.3,4.3 11.2,4.3 15.5,0l47.3,-47.3c2.2,-2 3.3,-4.8 3.3,-7.7z"/>
   </g>
  </g>
  <g id="svg_4"/>
  <g id="svg_5"/>
  <g id="svg_6"/>
  <g id="svg_7"/>
  <g id="svg_8"/>
  <g id="svg_9"/>
  <g id="svg_10"/>
  <g id="svg_11"/>
  <g id="svg_12"/>
  <g id="svg_13"/>
  <g id="svg_14"/>
  <g id="svg_15"/>
  <g id="svg_16"/>
  <g id="svg_17"/>
  <g id="svg_18"/>
 </g>
</svg>